<svg width="89" height="32" viewBox="0 0 89 32" fill="none" xmlns="http://www.w3.org/2000/svg">
<rect width="89" height="32" rx="16" fill="#111111" fill-opacity="0.5"/>
<path d="M41.5589 21.1392C43.7365 21.1392 45.3224 19.8913 45.3175 18.1712C45.3224 16.8984 44.527 15.9837 43.1001 15.7798V15.7003C44.2038 15.4616 44.9446 14.6413 44.9396 13.4979C44.9446 11.9467 43.6222 10.679 41.5888 10.679C39.6101 10.679 38.0788 11.8572 38.0391 13.5625H39.8139C39.8438 12.7074 40.6392 12.1754 41.5788 12.1754C42.5284 12.1754 43.1598 12.7521 43.1548 13.6072C43.1598 14.4972 42.424 15.0888 41.37 15.0888H40.4702V16.5107H41.37C42.6577 16.5107 43.4233 17.157 43.4183 18.0767C43.4233 18.9766 42.6428 19.593 41.554 19.593C40.5298 19.593 39.7393 19.0611 39.6946 18.2308H37.8253C37.875 19.951 39.4112 21.1392 41.5589 21.1392ZM48.856 19.608H47.2651L47.2303 20.1648C47.1458 21.5121 46.7928 22.8842 46.6486 23.4858H47.8617C48.1003 22.8594 48.6522 21.4077 48.7914 20.1548L48.856 19.608ZM54.1644 21.1392C56.342 21.1392 57.9279 19.8913 57.9229 18.1712C57.9279 16.8984 57.1325 15.9837 55.7056 15.7798V15.7003C56.8093 15.4616 57.5501 14.6413 57.5451 13.4979C57.5501 11.9467 56.2276 10.679 54.1942 10.679C52.2156 10.679 50.6843 11.8572 50.6445 13.5625H52.4194C52.4492 12.7074 53.2447 12.1754 54.1843 12.1754C55.1339 12.1754 55.7653 12.7521 55.7603 13.6072C55.7653 14.4972 55.0295 15.0888 53.9755 15.0888H53.0756V16.5107H53.9755C55.2631 16.5107 56.0288 17.157 56.0238 18.0767C56.0288 18.9766 55.2482 19.593 54.1594 19.593C53.1353 19.593 52.3448 19.0611 52.3001 18.2308H50.4308C50.4805 19.951 52.0167 21.1392 54.1644 21.1392ZM63.1692 21.1392C65.3219 21.1392 66.8233 19.6776 66.8233 17.6541C66.8233 15.6953 65.4611 14.2834 63.6117 14.2834C62.7864 14.2834 62.0556 14.6115 61.6777 15.0589H61.6181L61.9114 12.3594H66.2914V10.8182H60.3851L59.8532 16.0682L61.5186 16.3416C61.8617 15.9638 62.508 15.7102 63.1195 15.7152C64.2381 15.7202 65.0435 16.5455 65.0385 17.6989C65.0435 18.8374 64.258 19.6477 63.1692 19.6477C62.2495 19.6477 61.5087 19.0661 61.4441 18.2308H59.6543C59.704 19.9212 61.1806 21.1392 63.1692 21.1392ZM72.0236 10.679C69.8162 10.6641 68.3496 12.1804 68.3496 14.169C68.3546 16.0881 69.7218 17.4751 71.5066 17.4751C72.6053 17.4751 73.5598 16.9432 74.052 16.0682H74.1216C74.1167 18.2457 73.3262 19.5433 71.9192 19.5433C71.0392 19.5433 70.4476 19.0362 70.2637 18.2259H68.449C68.6578 19.9112 69.9902 21.1392 71.9192 21.1392C74.3603 21.1392 75.9164 19.1009 75.9114 15.5959C75.9064 11.8871 73.9775 10.6889 72.0236 10.679ZM72.0286 12.1705C73.1174 12.1705 73.9178 13.0753 73.9178 14.1143C73.9228 15.1683 73.0826 16.0732 72.0087 16.0732C70.9249 16.0732 70.1444 15.218 70.1394 14.1293C70.1394 13.0355 70.9498 12.1705 72.0286 12.1705Z" fill="white"/>
<path d="M21.9997 11C25.158 11 27.9747 12.775 29.3497 15.5833C27.9747 18.3917 25.158 20.1667 21.9997 20.1667C18.8413 20.1667 16.0247 18.3917 14.6497 15.5833C16.0247 12.775 18.8413 11 21.9997 11ZM21.9997 9.33334C17.833 9.33334 14.2747 11.925 12.833 15.5833C14.2747 19.2417 17.833 21.8333 21.9997 21.8333C26.1663 21.8333 29.7247 19.2417 31.1663 15.5833C29.7247 11.925 26.1663 9.33334 21.9997 9.33334ZM21.9997 13.5C23.1497 13.5 24.083 14.4333 24.083 15.5833C24.083 16.7333 23.1497 17.6667 21.9997 17.6667C20.8497 17.6667 19.9163 16.7333 19.9163 15.5833C19.9163 14.4333 20.8497 13.5 21.9997 13.5ZM21.9997 11.8333C19.933 11.8333 18.2497 13.5167 18.2497 15.5833C18.2497 17.65 19.933 19.3333 21.9997 19.3333C24.0663 19.3333 25.7497 17.65 25.7497 15.5833C25.7497 13.5167 24.0663 11.8333 21.9997 11.8333Z" fill="white"/>
</svg>
