<svg width="24" height="25" viewBox="0 0 24 25" fill="none" xmlns="http://www.w3.org/2000/svg">
<path fill-rule="evenodd" clip-rule="evenodd" d="M12.0515 0C15.2477 0.00572792 18.2434 1.24869 20.5002 3.50549C22.757 5.76229 24 8.76372 24 11.9542C23.9943 18.5413 18.6329 23.9026 12.0515 23.9026H12.0458C10.0468 23.9026 8.0821 23.3986 6.33508 22.4477L0 24.1088L1.69546 17.9169C0.652982 16.1012 0.103102 14.0506 0.103102 11.9427C0.10883 5.36134 5.46444 0 12.0515 0ZM6.99379 20.5002C8.51742 21.4052 10.2644 21.8864 12.0515 21.8864C17.5217 21.8864 21.978 17.4301 21.9838 11.9484C21.9838 9.29642 20.9527 6.80477 19.0797 4.92601C17.201 3.05298 14.7093 2.01623 12.0573 2.01623C6.58138 2.01623 2.12506 6.46683 2.12506 11.9427C2.12506 13.8158 2.6463 15.643 3.64296 17.2239L3.8778 17.6019L2.87542 21.2678L6.63294 20.2826L6.99379 20.5002Z" fill="#111111"/>
<path d="M17.4988 14.4458C17.201 14.2969 15.7346 13.5752 15.4597 13.4721C15.1847 13.3747 14.9842 13.3231 14.7895 13.621C14.589 13.9189 14.0162 14.5947 13.8444 14.7895C13.6726 14.99 13.495 15.0129 13.1971 14.864C12.8993 14.715 11.937 14.4 10.7971 13.3804C9.90931 12.59 9.3136 11.6105 9.13604 11.3126C8.9642 11.0148 9.11885 10.8544 9.26778 10.7055C9.39952 10.5737 9.56563 10.3561 9.71456 10.1842C9.86348 10.0124 9.91503 9.8864 10.0124 9.68592C10.1098 9.48544 10.064 9.3136 9.9895 9.16468C9.91503 9.01575 9.31933 7.54367 9.0673 6.94797C8.82673 6.36372 8.58043 6.44391 8.39713 6.43818C8.2253 6.42673 8.02482 6.42673 7.82434 6.42673C7.62386 6.42673 7.3031 6.50119 7.02816 6.79905C6.75322 7.0969 5.98568 7.81862 5.98568 9.29069C5.98568 10.7628 7.0568 12.1776 7.20573 12.378C7.35465 12.5785 9.30787 15.5914 12.3036 16.8859C13.0138 17.1952 13.5695 17.3785 14.0048 17.516C14.7208 17.7451 15.368 17.7107 15.8835 17.6363C16.4563 17.5504 17.6477 16.9146 17.8998 16.2157C18.1461 15.5169 18.1461 14.9212 18.0716 14.7952C17.9971 14.6692 17.7967 14.5947 17.4988 14.4458Z" fill="#111111"/>
</svg>
