<svg width="19" height="13" viewBox="0 0 19 13" fill="none" xmlns="http://www.w3.org/2000/svg">
<path d="M9.50001 1.72727C12.7732 1.72727 15.6923 3.56682 17.1173 6.47728C15.6923 9.38774 12.7732 11.2273 9.50001 11.2273C6.22683 11.2273 3.30773 9.38774 1.88273 6.47728C3.30773 3.56682 6.22683 1.72727 9.50001 1.72727ZM9.50001 0C5.18182 0 1.49409 2.68591 0 6.47728C1.49409 10.2686 5.18182 12.9546 9.50001 12.9546C13.8182 12.9546 17.5059 10.2686 19 6.47728C17.5059 2.68591 13.8182 0 9.50001 0ZM9.50001 4.31819C10.6918 4.31819 11.6591 5.28546 11.6591 6.47728C11.6591 7.6691 10.6918 8.63637 9.50001 8.63637C8.30819 8.63637 7.34092 7.6691 7.34092 6.47728C7.34092 5.28546 8.30819 4.31819 9.50001 4.31819ZM9.50001 2.59091C7.35819 2.59091 5.61364 4.33546 5.61364 6.47728C5.61364 8.6191 7.35819 10.3636 9.50001 10.3636C11.6418 10.3636 13.3864 8.6191 13.3864 6.47728C13.3864 4.33546 11.6418 2.59091 9.50001 2.59091Z" fill="white"/>
</svg>
